<svg id="BG2" xmlns="http://www.w3.org/2000/svg" xmlns:xlink="http://www.w3.org/1999/xlink" width="960" height="1080" viewBox="0 0 960 1080">
  <defs>
    <clipPath id="clip-path">
      <rect id="Rectangle_7836" data-name="Rectangle 7836" width="960" height="1080" fill="none" stroke="#707070" stroke-width="1"/>
    </clipPath>
  </defs>
  <rect id="Rectangle_7837" data-name="Rectangle 7837" width="960" height="1080" fill="#f4f6f9"/>
  <g id="BG" clip-path="url(#clip-path)">
    <g id="Group_26271" data-name="Group 26271" transform="translate(-57.043 -64.08)">
      <path id="Path_49813" data-name="Path 49813" d="M267.993,96.142h38.668v11.567H296.1v6.411h10.565v19.723h34.333V107.709h8.979V64.185H306.661V92.878H267.993V64.185h-56.94v69.658h56.94Z" transform="translate(178.651 0.122)" fill="rgba(3,109,206,0.02)"/>
      <path id="Path_49814" data-name="Path 49814" d="M315.865,127.6H281.532v7.761h-9.111v26.393h9.111v35.506h34.333Z" transform="translate(249.838 73.684)" fill="rgba(3,109,206,0.02)"/>
      <path id="Path_49815" data-name="Path 49815" d="M161.167,74.314h25.365v1.722H161.167ZM186.532,64.08v1.9H161.167v-1.9H121.953v1.9h-3.022v8.333h3.022v1.722H83.915v148.94h35.016v2.115h7.981v-2.115h68.064V254H218.7V224.976H205.659V76.036h-.894V74.314H326.312V65.981H204.765v-1.9Z" transform="translate(31.172 0)" fill="rgba(3,109,206,0.02)"/>
      <path id="Path_49816" data-name="Path 49816" d="M301.674,64.08v6.067H277.508v5.888h24.166v31.793H296.92v2.227h4.754v23.008h3.961V110.056h27.08v-2.227h-27.08V76.036H351.2V70.147H305.635V64.08Z" transform="translate(255.739 0)" fill="rgba(3,109,206,0.02)"/>
      <rect id="Rectangle_7567" data-name="Rectangle 7567" width="3.169" height="44.397" transform="translate(535.228 88.667)" fill="rgba(3,109,206,0.02)"/>
      <path id="Path_49817" data-name="Path 49817" d="M260.343,91.869v16.39H238.687v5.849h21.656v42.463h11.822V114.109h23.041v4.162h30.9V107.156h-30.9v1.1H272.165V91.869Z" transform="translate(210.707 32.236)" fill="rgba(3,109,206,0.02)"/>
      <rect id="Rectangle_7568" data-name="Rectangle 7568" width="19.598" height="92.644" transform="translate(287.442 249.278)" fill="rgba(3,109,206,0.02)"/>
      <rect id="Rectangle_7569" data-name="Rectangle 7569" width="3.169" height="60.616" transform="translate(157.291 287.124)" fill="rgba(3,109,206,0.02)"/>
      <rect id="Rectangle_7570" data-name="Rectangle 7570" width="8.21" height="83.436" transform="translate(86.489 341.923)" fill="rgba(3,109,206,0.02)"/>
      <rect id="Rectangle_7571" data-name="Rectangle 7571" width="5.547" height="17.651" transform="translate(410.834 262.119)" fill="rgba(3,109,206,0.02)"/>
      <path id="Path_49818" data-name="Path 49818" d="M231.215,81.28h-8.469v.806H187.523V72.53H171.9v9.556h-14.71V85.6H171.9v6.044h15.621V85.6h35.223v6.044h8.469V85.6h13.848V82.086H231.215Z" transform="translate(116.173 9.802)" fill="rgba(3,109,206,0.02)"/>
      <rect id="Rectangle_7572" data-name="Rectangle 7572" width="10.489" height="12.83" transform="translate(321.451 166.65)" fill="rgba(3,109,206,0.02)"/>
      <rect id="Rectangle_7573" data-name="Rectangle 7573" width="10.571" height="12.934" transform="translate(94.699 208.359)" fill="rgba(3,109,206,0.02)"/>
      <path id="Path_49819" data-name="Path 49819" d="M124.28,158.448v58.458h33.661V197.93h25.939V182.763H157.941V158.448Z" transform="translate(77.995 109.466)" fill="rgba(3,109,206,0.02)"/>
      <rect id="Rectangle_7574" data-name="Rectangle 7574" width="28.743" height="10.329" transform="translate(198.75 356.317)" fill="rgba(3,109,206,0.02)"/>
      <path id="Path_49820" data-name="Path 49820" d="M332.581,162.75h26.81V147.125H318.168v-15.93H296.593v15.93H296.4V162.75h14.61v12.472h21.572Z" transform="translate(277.653 77.853)" fill="rgba(3,109,206,0.02)"/>
      <rect id="Rectangle_7575" data-name="Rectangle 7575" width="9.424" height="11.528" transform="translate(561.375 139.391)" fill="rgba(3,109,206,0.02)"/>
      <path id="Path_49821" data-name="Path 49821" d="M287.31,115.342H257.333v2.9H287.31v9.932h62.5V108.309h-62.5Z" transform="translate(232.336 51.306)" fill="rgba(3,109,206,0.02)"/>
      <path id="Path_49822" data-name="Path 49822" d="M76.8,64.08v33.3H57.043v66.064H96.607v-3.825h12.046V148.884H96.607V106.872h12.046V85.656H91.313V97.378H86.49V64.08Z" transform="translate(0 0)" fill="rgba(3,109,206,0.02)"/>
      <rect id="Rectangle_7576" data-name="Rectangle 7576" width="14.183" height="17.351" transform="translate(178.157 231.927)" fill="rgba(3,109,206,0.02)"/>
      <path id="Path_49823" data-name="Path 49823" d="M154.494,205.423V147.734h28.089v-1.112h16.042v-6.087H182.583V106.476h-9.523V78.58H161.3V94.555h-6.8v11.921h-5.635v13.418h-5.633v41.15h-2.337v36.962h2.337v7.417Z" transform="translate(97.261 16.82)" fill="rgba(3,109,206,0.02)"/>
      <rect id="Rectangle_7577" data-name="Rectangle 7577" width="23.302" height="6.936" transform="translate(73.304 191.384)" fill="rgba(3,109,206,0.02)"/>
      <rect id="Rectangle_7578" data-name="Rectangle 7578" width="3.961" height="4.847" transform="translate(314.172 140.494)" fill="rgba(3,109,206,0.02)"/>
      <rect id="Rectangle_7579" data-name="Rectangle 7579" width="3.318" height="4.061" transform="translate(318.133 116.536)" fill="rgba(3,109,206,0.02)"/>
      <rect id="Rectangle_7580" data-name="Rectangle 7580" width="28.583" height="34.968" transform="translate(347.388 111.378)" fill="rgba(3,109,206,0.02)"/>
      <rect id="Rectangle_7581" data-name="Rectangle 7581" width="14.262" height="17.448" transform="translate(370.029 82.332)" fill="rgba(3,109,206,0.02)"/>
      <rect id="Rectangle_7582" data-name="Rectangle 7582" width="3.089" height="3.78" transform="translate(295.885 136.714)" fill="rgba(3,109,206,0.02)"/>
      <rect id="Rectangle_7583" data-name="Rectangle 7583" width="17.755" height="21.721" transform="translate(270.319 204.763)" fill="rgba(3,109,206,0.02)"/>
      <rect id="Rectangle_7584" data-name="Rectangle 7584" width="7.821" height="9.569" transform="translate(289.608 186.962)" fill="rgba(3,109,206,0.02)"/>
      <rect id="Rectangle_7585" data-name="Rectangle 7585" width="2.197" height="2.687" transform="translate(457.58 82.969)" fill="rgba(3,109,206,0.02)"/>
      <rect id="Rectangle_7586" data-name="Rectangle 7586" width="12.096" height="14.798" transform="translate(430.989 150.508)" fill="rgba(3,109,206,0.02)"/>
      <rect id="Rectangle_7587" data-name="Rectangle 7587" width="36.113" height="5.106" transform="translate(307.039 198.322)" fill="rgba(3,109,206,0.02)"/>
      <rect id="Rectangle_7588" data-name="Rectangle 7588" width="6.212" height="6.067" transform="translate(472.635 64.08)" fill="rgba(3,109,206,0.02)"/>
      <rect id="Rectangle_7589" data-name="Rectangle 7589" width="59.318" height="4.784" transform="translate(565.703 191.747)" fill="rgba(3,109,206,0.02)"/>
      <rect id="Rectangle_7590" data-name="Rectangle 7590" width="31.635" height="6.897" transform="translate(437.037 196.531)" fill="rgba(3,109,206,0.02)"/>
      <rect id="Rectangle_7591" data-name="Rectangle 7591" width="3.804" height="4.655" transform="translate(138.277 302.742)" fill="rgba(3,109,206,0.02)"/>
      <rect id="Rectangle_7592" data-name="Rectangle 7592" width="7.193" height="83.512" transform="translate(109.568 337.575)" fill="rgba(3,109,206,0.02)"/>
      <rect id="Rectangle_7593" data-name="Rectangle 7593" width="7.193" height="83.512" transform="translate(149.528 337.572)" fill="rgba(3,109,206,0.02)"/>
      <rect id="Rectangle_7594" data-name="Rectangle 7594" width="7.193" height="83.512" transform="translate(189.488 337.575)" fill="rgba(3,109,206,0.02)"/>
      <rect id="Rectangle_7595" data-name="Rectangle 7595" width="12.251" height="14.988" transform="translate(298.974 142.918)" fill="rgba(3,109,206,0.02)"/>
      <rect id="Rectangle_7596" data-name="Rectangle 7596" width="5.597" height="3.92" transform="translate(282.478 114.242)" fill="rgba(3,109,206,0.02)"/>
      <path id="Path_49824" data-name="Path 49824" d="M326.775,244.569h10.968v-4.62h27.063v8.94h1.585v-8.94h63.059V219.66h-9.182V202.287H407.432V219.66h-41.04V130.876h-1.585V149.2H350.738V131.565H329.166v26.393H343.58v3.324h-5.836V171.8h5.836v3.8h21.226V219.66H337.744v-26.2H326.775v26.2H299.043V196.587h-.2V219.66H280.424v-4.914h-.851v4.914H178.686v20.289h85.694v16.98h3.961v-16.98h11.232v20.142h.851V239.949h9.459v2.843h-2.724v9.2h2.724v5.91h8.964v2.188h.2V257.9h21.838V239.949h5.895Z" transform="translate(141.106 77.483)" fill="rgba(3,109,206,0.02)"/>
      <rect id="Rectangle_7597" data-name="Rectangle 7597" width="13.815" height="16.902" transform="translate(566.088 337.575)" fill="rgba(3,109,206,0.02)"/>
      <path id="Path_49825" data-name="Path 49825" d="M80.937,218.521h9.022V187.475h22.5V154.386H85.414v32.378H80.937Z" transform="translate(27.717 104.755)" fill="rgba(3,109,206,0.02)"/>
      <path id="Path_49826" data-name="Path 49826" d="M57.043,147.418V240.9H69.608v83.512H76.8V240.9h28.469v-69.66H76.8V147.418Z" transform="translate(0 96.672)" fill="rgba(3,109,206,0.02)"/>
      <rect id="Rectangle_7598" data-name="Rectangle 7598" width="12.035" height="3.162" transform="translate(69.608 224.978)" fill="rgba(3,109,206,0.02)"/>
      <rect id="Rectangle_7599" data-name="Rectangle 7599" width="8.664" height="10.599" transform="translate(96.606 245.82)" fill="rgba(3,109,206,0.02)"/>
      <rect id="Rectangle_7600" data-name="Rectangle 7600" width="8.796" height="6.363" transform="translate(351.33 339.661)" fill="rgba(3,109,206,0.02)"/>
      <rect id="Rectangle_7601" data-name="Rectangle 7601" width="12.111" height="9.053" transform="translate(353.743 279.771)" fill="rgba(3,109,206,0.02)"/>
      <path id="Path_49827" data-name="Path 49827" d="M197.722,157.741H176.148v26.393h14.416v17.634h21.572v-7.255h19.732V184.134H242.55v17.634h21.574v-23.8h4.251v14.815h14.141v-8.651h12.02v17.634h13.789v.927H319.42V165.573H308.327v9.8H301.7V157.741H280.123v17.742h-.11V108.31H223.076v69.66h5.061v6.165h-16v-8.759H197.722Z" transform="translate(138.161 51.306)" fill="rgba(3,109,206,0.02)"/>
      <rect id="Rectangle_7602" data-name="Rectangle 7602" width="4.765" height="36.962" transform="translate(251.823 177.864)" fill="rgba(3,109,206,0.02)"/>
      <rect id="Rectangle_7603" data-name="Rectangle 7603" width="4.765" height="36.962" transform="translate(265.496 177.864)" fill="rgba(3,109,206,0.02)"/>
      <rect id="Rectangle_7604" data-name="Rectangle 7604" width="42.653" height="2.931" transform="translate(367.519 152.579)" fill="rgba(3,109,206,0.02)"/>
      <rect id="Rectangle_7605" data-name="Rectangle 7605" width="3.942" height="4.823" transform="translate(347.388 163.44)" fill="rgba(3,109,206,0.02)"/>
      <rect id="Rectangle_7606" data-name="Rectangle 7606" width="45.952" height="15.442" transform="translate(579.069 138.604)" fill="rgba(3,109,206,0.02)"/>
      <rect id="Rectangle_7607" data-name="Rectangle 7607" width="21.477" height="26.274" transform="translate(571.406 262.549)" fill="rgba(3,109,206,0.02)"/>
      <rect id="Rectangle_7608" data-name="Rectangle 7608" width="14.01" height="17.14" transform="translate(526.242 275.727)" fill="rgba(3,109,206,0.02)"/>
      <rect id="Rectangle_7609" data-name="Rectangle 7609" width="21.699" height="26.548" transform="translate(321.455 260.795)" fill="rgba(3,109,206,0.02)"/>
      <rect id="Rectangle_7610" data-name="Rectangle 7610" width="19.047" height="23.302" transform="translate(260.796 242.349)" fill="rgba(3,109,206,0.02)"/>
      <path id="Path_49828" data-name="Path 49828" d="M430.2,194.98v69.66h56.94v-37.7h38.666V238.5H515.245v6.413h10.565V264.64h34.335V238.5h8.979V194.98H525.809v28.693H487.143V194.98Z" transform="translate(432.865 151.844)" fill="rgba(3,109,206,0.02)"/>
      <path id="Path_49829" data-name="Path 49829" d="M535.015,258.4H500.682v7.761h-9.111v26.393h9.111v35.506h34.333Z" transform="translate(504.052 225.407)" fill="rgba(3,109,206,0.02)"/>
      <path id="Path_49830" data-name="Path 49830" d="M437.848,453.877V424.853H424.81V275.913h-.9v-1.724H545.461v-8.331H423.914V156H418.84V135.323h-3.169V156h-9.99v36.344h-9.024V160.556h4.752v-2.225h-4.752V135.323h-3.964v23.008H365.615v2.225h27.078v31.793H347.132v5.89h45.561v7.6h3.964v-7.6h9.024v67.619H380.318v-43.5H341.1v43.5h-3.02v8.331h3.02v1.724H303.066v148.94h35.016v2.112h7.979v-2.112h68.064v29.024ZM405.681,275.913H380.318v-1.724h25.363Z" transform="translate(285.386 82.642)" fill="rgba(3,109,206,0.02)"/>
      <path id="Path_49831" data-name="Path 49831" d="M514.356,239.055H491.315v-16.39H479.493v16.39H457.837v5.851h21.656v42.463h11.822V244.906h23.041v4.16h30.9V237.951h-30.9Z" transform="translate(464.92 183.958)" fill="rgba(3,109,206,0.02)"/>
      <rect id="Rectangle_7611" data-name="Rectangle 7611" width="5.545" height="17.651" transform="translate(884.199 544.638)" fill="rgba(3,109,206,0.02)"/>
      <path id="Path_49832" data-name="Path 49832" d="M450.366,212.076H441.9v.806H406.673v-9.556H391.052v9.556h-14.71v3.512h14.71v6.044h15.621v-6.044H441.9v6.044h8.469v-6.044h13.848v-3.512H450.366Z" transform="translate(370.387 161.525)" fill="rgba(3,109,206,0.02)"/>
      <rect id="Rectangle_7612" data-name="Rectangle 7612" width="10.489" height="12.833" transform="translate(794.814 449.167)" fill="rgba(3,109,206,0.02)"/>
      <rect id="Rectangle_7613" data-name="Rectangle 7613" width="10.571" height="12.934" transform="translate(568.062 490.878)" fill="rgba(3,109,206,0.02)"/>
      <path id="Path_49833" data-name="Path 49833" d="M578.542,279.295H552.6v-18.49h-7.193v18.49h-8.089v-15.93H515.744v15.93h-.194V294.92h14.608v12.472h15.248v36.925H552.6v-49.4h25.944Z" transform="translate(531.866 228.201)" fill="rgba(3,109,206,0.02)"/>
      <rect id="Rectangle_7614" data-name="Rectangle 7614" width="9.424" height="11.528" transform="translate(1034.738 421.909)" fill="rgba(3,109,206,0.02)"/>
      <path id="Path_49834" data-name="Path 49834" d="M506.46,246.138H476.484v2.9H506.46v9.934h62.5V239.1h-62.5Z" transform="translate(486.55 203.028)" fill="rgba(3,109,206,0.02)"/>
      <path id="Path_49835" data-name="Path 49835" d="M362.6,292.681H350.559V250.667H362.6V229.456H345.264v11.72h-4.825v-57.51h-9.688v57.51H296.561V291.82H281.856V208.308h-7.193V291.82H246.192v69.66h28.471V385.3h48.393V340.571H303.132V307.24h47.427v-3.825H362.6Z" transform="translate(219.412 138.72)" fill="rgba(3,109,206,0.02)"/>
      <rect id="Rectangle_7615" data-name="Rectangle 7615" width="14.183" height="17.351" transform="translate(651.522 514.444)" fill="rgba(3,109,206,0.02)"/>
      <path id="Path_49836" data-name="Path 49836" d="M417.775,271.332H401.733V237.274H392.21v-27.9H380.446v15.978h-6.8v11.921h-5.635v13.418h-5.635v41.15h-2.335V328.8h2.335v7.417h11.271V278.532h28.089v-1.115h16.042Z" transform="translate(351.474 168.542)" fill="rgba(3,109,206,0.02)"/>
      <rect id="Rectangle_7616" data-name="Rectangle 7616" width="23.302" height="6.936" transform="translate(546.669 473.903)" fill="rgba(3,109,206,0.02)"/>
      <rect id="Rectangle_7617" data-name="Rectangle 7617" width="3.961" height="4.847" transform="translate(787.535 423.013)" fill="rgba(3,109,206,0.02)"/>
      <rect id="Rectangle_7618" data-name="Rectangle 7618" width="3.318" height="4.061" transform="translate(791.496 399.052)" fill="rgba(3,109,206,0.02)"/>
      <rect id="Rectangle_7619" data-name="Rectangle 7619" width="28.583" height="34.968" transform="translate(820.751 393.894)" fill="rgba(3,109,206,0.02)"/>
      <rect id="Rectangle_7620" data-name="Rectangle 7620" width="14.262" height="17.448" transform="translate(843.392 364.849)" fill="rgba(3,109,206,0.02)"/>
      <rect id="Rectangle_7621" data-name="Rectangle 7621" width="3.089" height="3.78" transform="translate(769.25 419.233)" fill="rgba(3,109,206,0.02)"/>
      <rect id="Rectangle_7622" data-name="Rectangle 7622" width="17.755" height="21.721" transform="translate(743.683 487.282)" fill="rgba(3,109,206,0.02)"/>
      <rect id="Rectangle_7623" data-name="Rectangle 7623" width="7.821" height="9.569" transform="translate(762.974 469.481)" fill="rgba(3,109,206,0.02)"/>
      <rect id="Rectangle_7624" data-name="Rectangle 7624" width="2.197" height="2.687" transform="translate(930.946 365.488)" fill="rgba(3,109,206,0.02)"/>
      <rect id="Rectangle_7625" data-name="Rectangle 7625" width="12.096" height="14.798" transform="translate(904.354 433.025)" fill="rgba(3,109,206,0.02)"/>
      <rect id="Rectangle_7626" data-name="Rectangle 7626" width="36.115" height="5.106" transform="translate(780.403 480.839)" fill="rgba(3,109,206,0.02)"/>
      <rect id="Rectangle_7627" data-name="Rectangle 7627" width="6.214" height="7.601" transform="translate(945.999 345.063)" fill="rgba(3,109,206,0.02)"/>
      <rect id="Rectangle_7628" data-name="Rectangle 7628" width="59.318" height="4.784" transform="translate(1039.066 474.266)" fill="rgba(3,109,206,0.02)"/>
      <rect id="Rectangle_7629" data-name="Rectangle 7629" width="31.635" height="6.897" transform="translate(910.402 479.05)" fill="rgba(3,109,206,0.02)"/>
      <rect id="Rectangle_7630" data-name="Rectangle 7630" width="3.804" height="4.655" transform="translate(611.64 585.261)" fill="rgba(3,109,206,0.02)"/>
      <path id="Path_49837" data-name="Path 49837" d="M358.636,405.005v-18.49h8.089v15.93H388.3v-15.93h.194V370.89H373.883V358.418H358.636V321.493h-7.193v49.4H325.5v15.625h25.944v18.49Z" transform="translate(311.409 298.599)" fill="rgba(3,109,206,0.02)"/>
      <rect id="Rectangle_7631" data-name="Rectangle 7631" width="12.251" height="14.988" transform="translate(772.339 425.435)" fill="rgba(3,109,206,0.02)"/>
      <rect id="Rectangle_7632" data-name="Rectangle 7632" width="5.597" height="3.92" transform="translate(755.841 396.761)" fill="rgba(3,109,206,0.02)"/>
      <path id="Path_49838" data-name="Path 49838" d="M309.109,318.269h22.5V285.183H304.566v32.376h-4.48v31.756h9.022Z" transform="translate(281.93 256.478)" fill="rgba(3,109,206,0.02)"/>
      <rect id="Rectangle_7633" data-name="Rectangle 7633" width="12.035" height="3.162" transform="translate(542.971 507.497)" fill="rgba(3,109,206,0.02)"/>
      <rect id="Rectangle_7634" data-name="Rectangle 7634" width="8.664" height="10.599" transform="translate(569.969 528.339)" fill="rgba(3,109,206,0.02)"/>
      <rect id="Rectangle_7635" data-name="Rectangle 7635" width="8.795" height="6.363" transform="translate(824.693 622.18)" fill="rgba(3,109,206,0.02)"/>
      <rect id="Rectangle_7636" data-name="Rectangle 7636" width="12.113" height="9.053" transform="translate(827.106 562.288)" fill="rgba(3,109,206,0.02)"/>
      <path id="Path_49839" data-name="Path 49839" d="M538.569,296.369H527.477v9.8h-6.631V288.537H499.272v17.742h-.108V239.105h-56.94v69.66h5.061v6.165h-16v-8.759H416.87V288.537H395.3V314.93h14.414v17.634h21.574v-7.255h19.732V314.93H461.7v17.634h21.572v-23.8h4.251v14.815h14.141V314.93h12.023v17.634h13.789v.927h11.092Z" transform="translate(392.376 203.029)" fill="rgba(3,109,206,0.02)"/>
      <rect id="Rectangle_7637" data-name="Rectangle 7637" width="4.767" height="36.962" transform="translate(725.184 460.383)" fill="rgba(3,109,206,0.02)"/>
      <rect id="Rectangle_7638" data-name="Rectangle 7638" width="4.767" height="36.962" transform="translate(738.859 460.381)" fill="rgba(3,109,206,0.02)"/>
      <rect id="Rectangle_7639" data-name="Rectangle 7639" width="42.653" height="2.929" transform="translate(840.885 435.101)" fill="rgba(3,109,206,0.02)"/>
      <rect id="Rectangle_7640" data-name="Rectangle 7640" width="3.942" height="4.823" transform="translate(820.751 445.959)" fill="rgba(3,109,206,0.02)"/>
      <rect id="Rectangle_7641" data-name="Rectangle 7641" width="45.952" height="15.442" transform="translate(1052.435 421.123)" fill="rgba(3,109,206,0.02)"/>
      <rect id="Rectangle_7642" data-name="Rectangle 7642" width="14.01" height="17.14" transform="translate(999.605 558.246)" fill="rgba(3,109,206,0.02)"/>
      <rect id="Rectangle_7643" data-name="Rectangle 7643" width="21.699" height="26.549" transform="translate(794.818 543.314)" fill="rgba(3,109,206,0.02)"/>
      <rect id="Rectangle_7644" data-name="Rectangle 7644" width="19.047" height="23.302" transform="translate(734.159 524.868)" fill="rgba(3,109,206,0.02)"/>
      <path id="Path_49840" data-name="Path 49840" d="M441.7,172.606H403.035V161.039H413.6v-6.411H403.035V134.906H368.7v26.134h-8.979v43.524h43.312V175.87H441.7v28.693h56.937V134.906H441.7Z" transform="translate(351.108 82.158)" fill="rgba(3,109,206,0.02)"/>
      <path id="Path_49841" data-name="Path 49841" d="M342.557,141.148H376.89v-7.761H386V106.994H376.89V71.488H342.557Z" transform="translate(331.195 8.594)" fill="rgba(3,109,206,0.02)"/>
      <path id="Path_49842" data-name="Path 49842" d="M681.351,155.471V108.357H646.335v-2.112h-7.979v2.112H570.293V79.333H546.569v29.024h13.038V257.3h.9v1.724H438.954v8.333H560.5V377.205h5.074v20.684h3.169V377.205h9.99V340.861h9.024v31.793h-4.754v2.227h4.754v23.008h3.961V374.881H618.8v-2.227h-27.08V340.861h45.563v-5.89H591.722v-7.6H587.76v7.6h-9.024V267.354H604.1v43.5h39.215v-43.5h3.022v-8.333h-3.022V257.3h38.037ZM604.1,259.021H578.736V257.3H604.1Z" transform="translate(443.016 17.694)" fill="rgba(3,109,206,0.02)"/>
      <path id="Path_49843" data-name="Path 49843" d="M409.873,109.515v42.463H386.833v-4.162h-30.9v11.115h30.9v-1.1h23.041v16.388H421.7V157.83h21.656v-5.851H421.7V109.515Z" transform="translate(346.71 52.704)" fill="rgba(3,109,206,0.02)"/>
      <rect id="Rectangle_7645" data-name="Rectangle 7645" width="19.598" height="37.668" transform="translate(932.414 64.08)" fill="rgba(3,109,206,0.02)"/>
      <rect id="Rectangle_7646" data-name="Rectangle 7646" width="5.547" height="17.651" transform="translate(823.075 71.256)" fill="rgba(3,109,206,0.02)"/>
      <path id="Path_49844" data-name="Path 49844" d="M451.065,149.961v6.044H437.217v3.512h13.848v.806h8.469v-.806h35.223v9.556h15.621v-9.556h14.71v-3.512h-14.71v-6.044H494.758v6.044H459.534v-6.044Z" transform="translate(441.001 99.622)" fill="rgba(3,109,206,0.02)"/>
      <rect id="Rectangle_7647" data-name="Rectangle 7647" width="10.489" height="12.83" transform="translate(907.516 171.549)" fill="rgba(3,109,206,0.02)"/>
      <rect id="Rectangle_7648" data-name="Rectangle 7648" width="2.853" height="12.934" transform="translate(1134.184 129.733)" fill="rgba(3,109,206,0.02)"/>
      <rect id="Rectangle_7649" data-name="Rectangle 7649" width="33.659" height="19.034" transform="translate(1003.519 64.08)" fill="rgba(3,109,206,0.02)"/>
      <path id="Path_49845" data-name="Path 49845" d="M309.528,107.859h41.226v15.93h21.572v-15.93h.194V92.234H357.912V79.762H336.338V92.234h-26.81Z" transform="translate(292.883 18.191)" fill="rgba(3,109,206,0.02)"/>
      <rect id="Rectangle_7650" data-name="Rectangle 7650" width="9.422" height="11.528" transform="translate(668.657 200.108)" fill="rgba(3,109,206,0.02)"/>
      <path id="Path_49846" data-name="Path 49846" d="M334.945,133.7h62.5v-7.033h29.976v-2.9H397.443v-9.932h-62.5Z" transform="translate(322.366 57.715)" fill="rgba(3,109,206,0.02)"/>
      <path id="Path_49847" data-name="Path 49847" d="M554.154,196.988h6.236V175.775h-6.236Zm0-63.225h6.236V123.03h-6.236Z" transform="translate(576.647 68.382)" fill="rgba(3,109,206,0.02)"/>
      <rect id="Rectangle_7651" data-name="Rectangle 7651" width="14.182" height="17.351" transform="translate(1047.115 101.751)" fill="rgba(3,109,206,0.02)"/>
      <path id="Path_49848" data-name="Path 49848" d="M467.472,158.924h16.042v34.059h9.523v27.9H504.8V204.9h6.8V192.982h5.635V179.565h5.635v-41.15h2.335v-36.96h-2.335v-7.42H511.6v57.689H483.515v1.115H467.472Z" transform="translate(476.097 34.748)" fill="rgba(3,109,206,0.02)"/>
      <rect id="Rectangle_7652" data-name="Rectangle 7652" width="3.961" height="4.847" transform="translate(921.323 205.687)" fill="rgba(3,109,206,0.02)"/>
      <rect id="Rectangle_7653" data-name="Rectangle 7653" width="3.318" height="4.061" transform="translate(918.003 230.432)" fill="rgba(3,109,206,0.02)"/>
      <rect id="Rectangle_7654" data-name="Rectangle 7654" width="28.583" height="34.968" transform="translate(863.482 204.683)" fill="rgba(3,109,206,0.02)"/>
      <rect id="Rectangle_7655" data-name="Rectangle 7655" width="14.262" height="17.448" transform="translate(855.164 251.248)" fill="rgba(3,109,206,0.02)"/>
      <rect id="Rectangle_7656" data-name="Rectangle 7656" width="3.089" height="3.78" transform="translate(940.48 210.532)" fill="rgba(3,109,206,0.02)"/>
      <rect id="Rectangle_7657" data-name="Rectangle 7657" width="17.755" height="21.721" transform="translate(951.379 124.543)" fill="rgba(3,109,206,0.02)"/>
      <rect id="Rectangle_7658" data-name="Rectangle 7658" width="7.821" height="9.569" transform="translate(942.024 154.495)" fill="rgba(3,109,206,0.02)"/>
      <rect id="Rectangle_7659" data-name="Rectangle 7659" width="2.197" height="2.687" transform="translate(779.677 265.37)" fill="rgba(3,109,206,0.02)"/>
      <rect id="Rectangle_7660" data-name="Rectangle 7660" width="12.096" height="14.798" transform="translate(796.369 185.722)" fill="rgba(3,109,206,0.02)"/>
      <rect id="Rectangle_7661" data-name="Rectangle 7661" width="36.113" height="5.106" transform="translate(896.301 147.601)" fill="rgba(3,109,206,0.02)"/>
      <rect id="Rectangle_7662" data-name="Rectangle 7662" width="6.214" height="7.601" transform="translate(760.606 280.881)" fill="rgba(3,109,206,0.02)"/>
      <rect id="Rectangle_7663" data-name="Rectangle 7663" width="59.318" height="4.784" transform="translate(614.433 154.498)" fill="rgba(3,109,206,0.02)"/>
      <rect id="Rectangle_7664" data-name="Rectangle 7664" width="31.635" height="6.897" transform="translate(770.782 147.601)" fill="rgba(3,109,206,0.02)"/>
      <rect id="Rectangle_7665" data-name="Rectangle 7665" width="12.251" height="14.988" transform="translate(928.228 193.123)" fill="rgba(3,109,206,0.02)"/>
      <rect id="Rectangle_7666" data-name="Rectangle 7666" width="5.597" height="3.918" transform="translate(951.381 232.867)" fill="rgba(3,109,206,0.02)"/>
      <path id="Path_49849" data-name="Path 49849" d="M344.56,71.258H357.4V64.08H344.56Zm53.879-7.178v78.587h1.583V124.346H414.09V141.98h21.574V115.587H421.251v-3.326h5.836V101.748h-5.836v-3.8H400.022V64.08Zm28.648,16h10.968v-16H427.087Zm38.7-3.126h.2V64.08h-.2Z" transform="translate(333.519 0)" fill="rgba(3,109,206,0.02)"/>
      <rect id="Rectangle_7667" data-name="Rectangle 7667" width="27.045" height="27.806" transform="translate(1099.278 64.08)" fill="rgba(3,109,206,0.02)"/>
      <rect id="Rectangle_7668" data-name="Rectangle 7668" width="2.853" height="19.034" transform="translate(1134.184 64.08)" fill="rgba(3,109,206,0.02)"/>
      <rect id="Rectangle_7669" data-name="Rectangle 7669" width="2.853" height="10.599" transform="translate(1134.184 94.607)" fill="rgba(3,109,206,0.02)"/>
      <rect id="Rectangle_7670" data-name="Rectangle 7670" width="12.113" height="7.178" transform="translate(873.6 64.08)" fill="rgba(3,109,206,0.02)"/>
      <path id="Path_49850" data-name="Path 49850" d="M521.47,80.258H499.9v7.255H480.166V97.893H469.483V80.258H447.909v23.8h-4.251V89.242H429.517v8.651H417.5V80.258H403.707v-.924H392.613v37.12h11.094v-9.8h6.629v17.634H431.91V106.543h.11v67.174h56.938v-69.66H483.9V97.893h16v8.759h14.416v17.634h21.572V97.893H521.47Z" transform="translate(389.261 17.695)" fill="rgba(3,109,206,0.02)"/>
      <rect id="Rectangle_7671" data-name="Rectangle 7671" width="4.765" height="36.962" transform="translate(982.868 136.202)" fill="rgba(3,109,206,0.02)"/>
      <rect id="Rectangle_7672" data-name="Rectangle 7672" width="4.765" height="36.962" transform="translate(969.193 136.202)" fill="rgba(3,109,206,0.02)"/>
      <rect id="Rectangle_7673" data-name="Rectangle 7673" width="42.653" height="2.931" transform="translate(829.281 195.516)" fill="rgba(3,109,206,0.02)"/>
      <rect id="Rectangle_7674" data-name="Rectangle 7674" width="3.942" height="4.823" transform="translate(888.124 182.763)" fill="rgba(3,109,206,0.02)"/>
      <rect id="Rectangle_7675" data-name="Rectangle 7675" width="45.952" height="15.442" transform="translate(614.433 196.983)" fill="rgba(3,109,206,0.02)"/>
      <rect id="Rectangle_7676" data-name="Rectangle 7676" width="21.477" height="24.399" transform="translate(646.573 64.08)" fill="rgba(3,109,206,0.02)"/>
      <rect id="Rectangle_7677" data-name="Rectangle 7677" width="14.01" height="11.221" transform="translate(699.202 64.08)" fill="rgba(3,109,206,0.02)"/>
      <rect id="Rectangle_7678" data-name="Rectangle 7678" width="21.699" height="26.151" transform="translate(896.301 64.08)" fill="rgba(3,109,206,0.02)"/>
      <rect id="Rectangle_7679" data-name="Rectangle 7679" width="19.047" height="23.302" transform="translate(959.611 85.376)" fill="rgba(3,109,206,0.02)"/>
      <path id="Path_49851" data-name="Path 49851" d="M353.17,507.666h25.365v43.5h17.2v42.7h5.061v6.165h-16v-8.759H370.379V573.645H353.17v-5.618h24.479v-5.108H353.17Zm0-10.055h25.363v1.721H353.17Zm-81.842-6.3h9.288v8.018h-9.288Zm11.47-9.556h3.452v6.134H282.8Zm211.276-5.491h15.17v2.57h10.567v19.725h23.16v5.426h-2.56v1.1H517.366V488.7h-11.82v16.388H494.073Zm56.089,22.3h3.979V472.428h5.711v31.562h-9.69ZM304.816,478.247h7.5V462.271h6.8V460h3.452v6.044h11.47v31.568h.894v1.721h-20.6V487.9h-9.523Zm14.3-27.9h3.45v6.134h-3.45Zm271-9.716h1.786v31.793h-1.786Zm5.748,0h27.019v31.793H595.871Zm-369.035-1.724H252.2v1.722H226.836Zm43.6,0h20.6V450.35h9.523V460h-7.5v15.975h-6.8v2.272H282.8V472.2h-11.47V440.635h-.894Zm54.32,0h9.288v8.02h-9.288Zm203.513-13.286h14.7V428.9h-14.7ZM204.575,338.208h16v8.757H234.99V364.6H252.2v5.618H227.719v5.106H252.2v55.253H226.836v-43.5h-17.2v-42.7h-5.063Zm59.26-106.483v89H252.2v17.479h-10.05V320.573H220.576v7.253H200.845v10.381H190.161V320.573H168.59v23.8h-4.253V329.557H150.2v8.651H138.175V320.573H124.385v-.927H113.294v37.122h11.092v-9.8h6.629V364.6H152.59V346.858h.108V414.03h34.921v4.106H160.7v2.929h26.92v9.513H184.6v8.333h3.018v1.724h-6.452v-.953h-56.94v22.3h-3.244V433.152h.5V427.3h-.5V404.465H111.3V427.3H99.824V384.84H88V427.3H64.962v-4.162H57.043v11.117h7.919v-1.1H88V449.54H99.824V433.152H111.3v28.825H96.126V459.4H85.561V439.682H57.043V509.34H77.105v18.7h54v-3.825h12.046V513.48H131.1V509.34h18.481v80.235H184.6v2.11h7.977v-2.11h68.064V618.6h23.723V589.575H271.328V507.666h3.655v34.8h-2.337v36.96h2.337v7.42h11.269V529.151H314.34v-1.112h16.042v-6.085H314.34V507.666h19.131V522.5h1.465v91.372h-13v92.644h19.6v-89H353.17V600.038h10.05v17.634h21.574v-7.255h19.732V600.038h10.681v17.634h21.574v-23.8h4.251v14.815h14.142v-8.651h12.02v17.634h13.792v.924h11.092v-37.12H480.986v9.8h-6.631V573.645H452.782v17.742h-.112V524.213H417.749v-4.106h26.92v-2.929h-26.92v-9.513h3.02v-8.333h-3.02v-1.721H424.2v.953h56.94v-22.3h3.244v28.823h-.5v5.851h.5v22.835h9.688V510.942h11.474v42.463h11.82V510.942h23.043V515.1h30.9V503.989h-3.249V440.635h14.872v68.5h7.193V474.654h1.786v23.006h3.961V474.654h27.019V503.2h-9.325v15.442h45.952V503.2H630.084V440.635h11.349v-5.89h-7.607V375.176h-3.171v59.568h-.57v-9.12h-7.193v9.12H595.871v-7.6H591.91v7.6h-1.786v-9.12h-7.193v9.12H568.059v-4.769h-4.936V428.9H550.162v-3.279h28.471v-69.66H550.162V332.142H501.769v44.731H521.7v33.333H474.266v3.823H462.219v10.733h12.046V428.9H455.785V348.668H420.769v-2.11H412.79v2.11H344.726V319.647H321v29.022h13.038v81.909h-3.653v-34.8h2.335V358.82h-2.335V351.4H319.12v57.689H291.031v1.115H274.987v6.085h16.044v14.286H271.9V415.741h-1.464V324.366h13V231.724Z" transform="translate(0 194.467)" fill="rgba(3,109,206,0.02)"/>
      <rect id="Rectangle_7680" data-name="Rectangle 7680" width="3.169" height="60.616" transform="translate(410.415 420.374)" fill="rgba(3,109,206,0.02)"/>
      <rect id="Rectangle_7681" data-name="Rectangle 7681" width="8.21" height="83.436" transform="translate(476.178 342.752)" fill="rgba(3,109,206,0.02)"/>
      <rect id="Rectangle_7682" data-name="Rectangle 7682" width="5.547" height="17.651" transform="translate(154.494 488.342)" fill="rgba(3,109,206,0.02)"/>
      <rect id="Rectangle_7683" data-name="Rectangle 7683" width="10.489" height="12.83" transform="translate(238.935 588.633)" fill="rgba(3,109,206,0.02)"/>
      <rect id="Rectangle_7684" data-name="Rectangle 7684" width="10.571" height="12.934" transform="translate(465.607 546.82)" fill="rgba(3,109,206,0.02)"/>
      <path id="Path_49852" data-name="Path 49852" d="M233.29,297.382V238.923H199.629V257.9H173.689v15.165h25.939v24.317Z" transform="translate(135.31 202.818)" fill="rgba(3,109,206,0.02)"/>
      <rect id="Rectangle_7685" data-name="Rectangle 7685" width="28.743" height="10.329" transform="translate(343.381 401.467)" fill="rgba(3,109,206,0.02)"/>
      <rect id="Rectangle_7686" data-name="Rectangle 7686" width="24.162" height="2.899" transform="translate(57.043 598.567)" fill="rgba(3,109,206,0.02)"/>
      <rect id="Rectangle_7687" data-name="Rectangle 7687" width="14.183" height="17.351" transform="translate(378.535 518.835)" fill="rgba(3,109,206,0.02)"/>
      <rect id="Rectangle_7688" data-name="Rectangle 7688" width="23.302" height="6.936" transform="translate(474.268 569.792)" fill="rgba(3,109,206,0.02)"/>
      <rect id="Rectangle_7689" data-name="Rectangle 7689" width="17.755" height="21.721" transform="translate(282.8 541.629)" fill="rgba(3,109,206,0.02)"/>
      <rect id="Rectangle_7690" data-name="Rectangle 7690" width="7.821" height="9.569" transform="translate(273.445 571.582)" fill="rgba(3,109,206,0.02)"/>
      <rect id="Rectangle_7691" data-name="Rectangle 7691" width="12.096" height="14.798" transform="translate(127.79 602.807)" fill="rgba(3,109,206,0.02)"/>
      <rect id="Rectangle_7692" data-name="Rectangle 7692" width="31.635" height="6.897" transform="translate(102.203 564.685)" fill="rgba(3,109,206,0.02)"/>
      <rect id="Rectangle_7693" data-name="Rectangle 7693" width="3.804" height="4.655" transform="translate(428.796 460.716)" fill="rgba(3,109,206,0.02)"/>
      <rect id="Rectangle_7694" data-name="Rectangle 7694" width="7.193" height="83.512" transform="translate(454.113 347.029)" fill="rgba(3,109,206,0.02)"/>
      <rect id="Rectangle_7695" data-name="Rectangle 7695" width="7.193" height="83.512" transform="translate(414.154 347.029)" fill="rgba(3,109,206,0.02)"/>
      <rect id="Rectangle_7696" data-name="Rectangle 7696" width="7.193" height="83.512" transform="translate(374.194 347.027)" fill="rgba(3,109,206,0.02)"/>
      <rect id="Rectangle_7697" data-name="Rectangle 7697" width="5.597" height="3.918" transform="translate(282.8 649.951)" fill="rgba(3,109,206,0.02)"/>
      <path id="Path_49853" data-name="Path 49853" d="M149.344,233.738v20.14h-9.456v-2.843h2.722v-9.2h-2.722v-5.91h-8.964v-2.186h-.2v2.186H108.887v17.954h-5.895V249.26H92.026v4.618H64.964V244.94H63.378v8.938H57.043v20.289h6.335v88.785h1.585V344.628H79.03v17.636H100.6v-26.4H86.19v-3.326h5.836V322.03H86.19v-3.8H64.964V274.167H92.026v26.2h10.966v-26.2h27.732V297.24h.2V274.167h18.42v4.914h.853v-4.914H251.082V253.878H165.388V236.9h-3.961v16.98H150.2v-20.14Z" transform="translate(0 196.803)" fill="rgba(3,109,206,0.02)"/>
      <path id="Path_49854" data-name="Path 49854" d="M257.077,272.113h4.478V240.357h-9.02V271.4h-22.5V304.49h27.045Z" transform="translate(200.666 204.481)" fill="rgba(3,109,206,0.02)"/>
      <rect id="Rectangle_7698" data-name="Rectangle 7698" width="12.035" height="3.162" transform="translate(489.231 539.973)" fill="rgba(3,109,206,0.02)"/>
      <rect id="Rectangle_7699" data-name="Rectangle 7699" width="8.664" height="10.599" transform="translate(465.605 511.694)" fill="rgba(3,109,206,0.02)"/>
      <rect id="Rectangle_7700" data-name="Rectangle 7700" width="8.796" height="6.363" transform="translate(210.749 422.089)" fill="rgba(3,109,206,0.02)"/>
      <rect id="Rectangle_7701" data-name="Rectangle 7701" width="12.111" height="9.053" transform="translate(205.021 479.29)" fill="rgba(3,109,206,0.02)"/>
      <rect id="Rectangle_7702" data-name="Rectangle 7702" width="4.765" height="36.962" transform="translate(314.288 553.287)" fill="rgba(3,109,206,0.02)"/>
      <rect id="Rectangle_7703" data-name="Rectangle 7703" width="4.767" height="36.962" transform="translate(300.611 553.287)" fill="rgba(3,109,206,0.02)"/>
      <rect id="Rectangle_7704" data-name="Rectangle 7704" width="21.699" height="26.548" transform="translate(227.722 480.769)" fill="rgba(3,109,206,0.02)"/>
      <rect id="Rectangle_7705" data-name="Rectangle 7705" width="19.047" height="23.302" transform="translate(291.032 502.462)" fill="rgba(3,109,206,0.02)"/>
      <path id="Path_49855" data-name="Path 49855" d="M331.836,386.427H297.5v7.761h-9.111v26.393H297.5v35.506h34.333Z" transform="translate(268.365 373.922)" fill="rgba(3,109,206,0.02)"/>
      <rect id="Rectangle_7706" data-name="Rectangle 7706" width="3.169" height="44.397" transform="translate(569.725 647.731)" fill="rgba(3,109,206,0.02)"/>
      <rect id="Rectangle_7707" data-name="Rectangle 7707" width="3.169" height="60.616" transform="translate(191.788 846.187)" fill="rgba(3,109,206,0.02)"/>
      <rect id="Rectangle_7708" data-name="Rectangle 7708" width="8.208" height="83.436" transform="translate(120.988 900.986)" fill="rgba(3,109,206,0.02)"/>
      <rect id="Rectangle_7709" data-name="Rectangle 7709" width="5.545" height="17.651" transform="translate(445.333 821.183)" fill="rgba(3,109,206,0.02)"/>
      <rect id="Rectangle_7710" data-name="Rectangle 7710" width="10.489" height="12.833" transform="translate(355.948 725.711)" fill="rgba(3,109,206,0.02)"/>
      <rect id="Rectangle_7711" data-name="Rectangle 7711" width="10.571" height="12.934" transform="translate(129.196 767.423)" fill="rgba(3,109,206,0.02)"/>
      <path id="Path_49856" data-name="Path 49856" d="M199.852,441.59H173.912V417.273H140.251v58.458h33.661V456.758h25.939Z" transform="translate(96.521 409.703)" fill="rgba(3,109,206,0.02)"/>
      <rect id="Rectangle_7712" data-name="Rectangle 7712" width="28.743" height="10.329" transform="translate(233.247 915.38)" fill="rgba(3,109,206,0.02)"/>
      <path id="Path_49857" data-name="Path 49857" d="M348.552,434.048V421.576h26.81V405.951H334.139v-15.93H312.564v15.93h-.194v15.625h14.608v12.472Z" transform="translate(296.179 378.09)" fill="rgba(3,109,206,0.02)"/>
      <rect id="Rectangle_7713" data-name="Rectangle 7713" width="9.424" height="11.528" transform="translate(595.872 698.456)" fill="rgba(3,109,206,0.02)"/>
      <path id="Path_49858" data-name="Path 49858" d="M365.778,367.136h-62.5v7.033H273.3v2.9h29.976V387h62.5Z" transform="translate(250.863 351.544)" fill="rgba(3,109,206,0.02)"/>
      <rect id="Rectangle_7714" data-name="Rectangle 7714" width="14.183" height="17.351" transform="translate(212.654 790.99)" fill="rgba(3,109,206,0.02)"/>
      <rect id="Rectangle_7715" data-name="Rectangle 7715" width="23.302" height="6.936" transform="translate(107.803 750.449)" fill="rgba(3,109,206,0.02)"/>
      <rect id="Rectangle_7716" data-name="Rectangle 7716" width="17.755" height="21.721" transform="translate(304.817 763.826)" fill="rgba(3,109,206,0.02)"/>
      <rect id="Rectangle_7717" data-name="Rectangle 7717" width="7.821" height="9.569" transform="translate(324.105 746.026)" fill="rgba(3,109,206,0.02)"/>
      <rect id="Rectangle_7718" data-name="Rectangle 7718" width="12.096" height="14.798" transform="translate(465.488 709.569)" fill="rgba(3,109,206,0.02)"/>
      <rect id="Rectangle_7719" data-name="Rectangle 7719" width="59.318" height="4.784" transform="translate(600.201 750.81)" fill="rgba(3,109,206,0.02)"/>
      <rect id="Rectangle_7720" data-name="Rectangle 7720" width="31.635" height="6.897" transform="translate(471.536 755.594)" fill="rgba(3,109,206,0.02)"/>
      <rect id="Rectangle_7721" data-name="Rectangle 7721" width="3.804" height="4.655" transform="translate(172.772 861.806)" fill="rgba(3,109,206,0.02)"/>
      <rect id="Rectangle_7722" data-name="Rectangle 7722" width="7.193" height="83.512" transform="translate(144.065 896.636)" fill="rgba(3,109,206,0.02)"/>
      <rect id="Rectangle_7723" data-name="Rectangle 7723" width="7.193" height="83.512" transform="translate(184.025 896.636)" fill="rgba(3,109,206,0.02)"/>
      <rect id="Rectangle_7724" data-name="Rectangle 7724" width="7.193" height="83.512" transform="translate(223.985 896.638)" fill="rgba(3,109,206,0.02)"/>
      <rect id="Rectangle_7725" data-name="Rectangle 7725" width="5.597" height="3.92" transform="translate(316.975 673.305)" fill="rgba(3,109,206,0.02)"/>
      <path id="Path_49859" data-name="Path 49859" d="M336.852,498.774h5.895v4.62h10.966v-4.62h27.065v8.94h1.583v-8.94h63.061V478.485H436.24V461.112H423.4v17.373h-41.04V389.7h-1.583v18.321H366.71V390.389H345.136v26.393h14.416v3.326h-5.838v10.513h5.838v3.8h21.226v44.068H353.713v-26.2H342.747v26.2H315.015V455.412h-.2v23.073H296.4v-4.912h-.853v4.912H194.657v20.289h85.694v16.98h3.961v-16.98h11.23v20.142h.853V498.774h9.459v2.843H303.13v9.2h2.724v5.912h8.962v2.186h.2V516.73h21.838Z" transform="translate(159.633 377.721)" fill="rgba(3,109,206,0.02)"/>
      <rect id="Rectangle_7726" data-name="Rectangle 7726" width="13.815" height="16.902" transform="translate(600.585 896.638)" fill="rgba(3,109,206,0.02)"/>
      <path id="Path_49860" data-name="Path 49860" d="M101.386,445.589H96.908v31.756h9.02V446.3h22.5V413.213H101.386Z" transform="translate(46.244 404.993)" fill="rgba(3,109,206,0.02)"/>
      <path id="Path_49861" data-name="Path 49861" d="M59.756,450.976H79.68v48.749h21.278v83.514h7.191V499.725H136.62V430.068H108.149V406.245H59.756Z" transform="translate(3.148 396.91)" fill="rgba(3,109,206,0.02)"/>
      <rect id="Rectangle_7727" data-name="Rectangle 7727" width="12.035" height="3.162" transform="translate(104.105 784.042)" fill="rgba(3,109,206,0.02)"/>
      <rect id="Rectangle_7728" data-name="Rectangle 7728" width="8.664" height="10.599" transform="translate(131.103 804.883)" fill="rgba(3,109,206,0.02)"/>
      <rect id="Rectangle_7729" data-name="Rectangle 7729" width="8.796" height="6.363" transform="translate(385.827 898.724)" fill="rgba(3,109,206,0.02)"/>
      <rect id="Rectangle_7730" data-name="Rectangle 7730" width="12.113" height="9.053" transform="translate(388.238 838.834)" fill="rgba(3,109,206,0.02)"/>
      <rect id="Rectangle_7731" data-name="Rectangle 7731" width="4.765" height="36.962" transform="translate(286.321 736.928)" fill="rgba(3,109,206,0.02)"/>
      <rect id="Rectangle_7732" data-name="Rectangle 7732" width="4.765" height="36.962" transform="translate(299.993 736.928)" fill="rgba(3,109,206,0.02)"/>
      <rect id="Rectangle_7733" data-name="Rectangle 7733" width="21.477" height="26.274" transform="translate(605.903 821.613)" fill="rgba(3,109,206,0.02)"/>
      <rect id="Rectangle_7734" data-name="Rectangle 7734" width="14.01" height="17.14" transform="translate(560.74 834.791)" fill="rgba(3,109,206,0.02)"/>
      <rect id="Rectangle_7735" data-name="Rectangle 7735" width="21.699" height="26.549" transform="translate(355.95 819.859)" fill="rgba(3,109,206,0.02)"/>
      <rect id="Rectangle_7736" data-name="Rectangle 7736" width="19.047" height="23.302" transform="translate(295.293 801.412)" fill="rgba(3,109,206,0.02)"/>
      <path id="Path_49862" data-name="Path 49862" d="M446.175,453.806v69.66h56.938v-37.7h38.668V497.33H531.216v6.413h10.565v19.723h34.335V497.33H585.1V453.806H541.781V482.5H503.112V453.806Z" transform="translate(451.392 452.081)" fill="rgba(3,109,206,0.02)"/>
      <path id="Path_49863" data-name="Path 49863" d="M550.986,517.223H516.653v7.761h-9.111v26.393h9.111v35.506h34.333Z" transform="translate(522.578 525.644)" fill="rgba(3,109,206,0.02)"/>
      <path id="Path_49864" data-name="Path 49864" d="M453.819,712.7V683.679H440.781V534.739h-.9v-1.724H561.434v-8.331H439.884V414.833h-5.072V394.149h-3.171v20.684h-9.99v36.342h-9.024V419.382h4.752v-2.225h-4.752V394.149h-3.964v23.008H381.586v2.225h27.078v31.793H363.1v5.89h45.561v7.6h3.964v-7.6h9.024v67.619H396.289v-43.5H357.072v43.5h-3.02v8.331h3.02v1.724H319.037v148.94h35.016v2.113h7.979v-2.113H430.1V712.7ZM421.652,534.739H396.289v-1.724h25.363Z" transform="translate(303.913 382.879)" fill="rgba(3,109,206,0.02)"/>
      <path id="Path_49865" data-name="Path 49865" d="M530.327,497.881H507.286v-16.39H495.464v16.39H473.808v5.851h21.656V546.2h11.822V503.732h23.041v4.162h30.9V496.777h-30.9Z" transform="translate(483.447 484.195)" fill="rgba(3,109,206,0.02)"/>
      <rect id="Rectangle_7737" data-name="Rectangle 7737" width="19.598" height="53.218" transform="translate(795.304 1090.86)" fill="rgba(3,109,206,0.02)"/>
      <rect id="Rectangle_7738" data-name="Rectangle 7738" width="3.169" height="15.375" transform="translate(665.154 1128.703)" fill="rgba(3,109,206,0.02)"/>
      <rect id="Rectangle_7739" data-name="Rectangle 7739" width="5.547" height="17.651" transform="translate(918.694 1103.702)" fill="rgba(3,109,206,0.02)"/>
      <path id="Path_49866" data-name="Path 49866" d="M466.337,481.264V475.22h13.848v-3.512H466.337V470.9h-8.469v.806H422.644v-9.556H407.023v9.556h-14.71v3.512h14.71v6.044h15.621V475.22h35.223v6.044Z" transform="translate(388.913 461.762)" fill="rgba(3,109,206,0.02)"/>
      <rect id="Rectangle_7740" data-name="Rectangle 7740" width="10.489" height="12.833" transform="translate(829.311 1008.23)" fill="rgba(3,109,206,0.02)"/>
      <rect id="Rectangle_7741" data-name="Rectangle 7741" width="10.571" height="12.934" transform="translate(602.559 1049.939)" fill="rgba(3,109,206,0.02)"/>
      <path id="Path_49867" data-name="Path 49867" d="M359.4,548.069v34.584H419V572.384H393.061V548.069Z" transform="translate(350.735 561.426)" fill="rgba(3,109,206,0.02)"/>
      <path id="Path_49868" data-name="Path 49868" d="M531.715,520.817v15.93h-.194v15.625h14.61v12.472H567.7V552.372h18.943V536.746H553.287v-15.93Z" transform="translate(550.392 529.813)" fill="rgba(3,109,206,0.02)"/>
      <rect id="Rectangle_7742" data-name="Rectangle 7742" width="9.424" height="11.528" transform="translate(1069.235 980.973)" fill="rgba(3,109,206,0.02)"/>
      <path id="Path_49869" data-name="Path 49869" d="M522.431,504.963H492.455v2.9h29.976V517.8h62.5V497.932h-62.5Z" transform="translate(505.076 503.267)" fill="rgba(3,109,206,0.02)"/>
      <path id="Path_49870" data-name="Path 49870" d="M378.576,509.494V488.281H361.235V500H356.41v-57.51h-9.688V500H312.532v50.643H297.827V467.132h-7.193v83.514H262.163V620.3h28.471v23.823h48.393V599.4H319.1V566.064H366.53v-3.825h12.046V551.508H366.53V509.494Z" transform="translate(237.939 438.958)" fill="rgba(3,109,206,0.02)"/>
      <rect id="Rectangle_7743" data-name="Rectangle 7743" width="14.183" height="17.351" transform="translate(686.019 1073.509)" fill="rgba(3,109,206,0.02)"/>
      <path id="Path_49871" data-name="Path 49871" d="M433.746,530.159H417.7V496.1h-9.523V468.2H396.417v15.978h-6.8V496.1H383.98v13.418h-5.635v41.15H376.01v36.96h2.335v7.417h11.271V537.358H417.7v-1.115h16.042Z" transform="translate(370.001 468.779)" fill="rgba(3,109,206,0.02)"/>
      <rect id="Rectangle_7744" data-name="Rectangle 7744" width="23.302" height="6.936" transform="translate(581.167 1032.966)" fill="rgba(3,109,206,0.02)"/>
      <rect id="Rectangle_7745" data-name="Rectangle 7745" width="3.961" height="4.847" transform="translate(822.032 982.077)" fill="rgba(3,109,206,0.02)"/>
      <rect id="Rectangle_7746" data-name="Rectangle 7746" width="3.318" height="4.061" transform="translate(825.996 958.116)" fill="rgba(3,109,206,0.02)"/>
      <rect id="Rectangle_7747" data-name="Rectangle 7747" width="28.583" height="34.968" transform="translate(855.249 952.958)" fill="rgba(3,109,206,0.02)"/>
      <rect id="Rectangle_7748" data-name="Rectangle 7748" width="14.262" height="17.448" transform="translate(877.89 923.914)" fill="rgba(3,109,206,0.02)"/>
      <rect id="Rectangle_7749" data-name="Rectangle 7749" width="3.089" height="3.78" transform="translate(803.748 978.297)" fill="rgba(3,109,206,0.02)"/>
      <rect id="Rectangle_7750" data-name="Rectangle 7750" width="17.755" height="21.721" transform="translate(778.18 1046.345)" fill="rgba(3,109,206,0.02)"/>
      <rect id="Rectangle_7751" data-name="Rectangle 7751" width="7.821" height="9.569" transform="translate(797.471 1028.545)" fill="rgba(3,109,206,0.02)"/>
      <rect id="Rectangle_7752" data-name="Rectangle 7752" width="2.197" height="2.687" transform="translate(965.443 924.551)" fill="rgba(3,109,206,0.02)"/>
      <rect id="Rectangle_7753" data-name="Rectangle 7753" width="12.096" height="14.798" transform="translate(938.851 992.088)" fill="rgba(3,109,206,0.02)"/>
      <rect id="Rectangle_7754" data-name="Rectangle 7754" width="36.113" height="5.106" transform="translate(814.902 1039.904)" fill="rgba(3,109,206,0.02)"/>
      <rect id="Rectangle_7755" data-name="Rectangle 7755" width="6.214" height="7.601" transform="translate(980.496 904.127)" fill="rgba(3,109,206,0.02)"/>
      <rect id="Rectangle_7756" data-name="Rectangle 7756" width="59.318" height="4.784" transform="translate(1073.564 1033.329)" fill="rgba(3,109,206,0.02)"/>
      <rect id="Rectangle_7757" data-name="Rectangle 7757" width="31.635" height="6.897" transform="translate(944.899 1038.113)" fill="rgba(3,109,206,0.02)"/>
      <rect id="Rectangle_7758" data-name="Rectangle 7758" width="12.251" height="14.988" transform="translate(806.837 984.498)" fill="rgba(3,109,206,0.02)"/>
      <rect id="Rectangle_7759" data-name="Rectangle 7759" width="5.597" height="3.918" transform="translate(790.339 955.826)" fill="rgba(3,109,206,0.02)"/>
      <path id="Path_49872" data-name="Path 49872" d="M599.928,520.5v18.323H585.862V521.187H564.286v26.391H578.7V550.9h-5.839v10.513H578.7v3.8h21.226V609.28H572.863v-26.2H561.9v26.2H534.164V586.209h-.2V609.28H515.548v-4.912h-.855v4.912H413.807v5.357H664.572V609.28H655.39V591.91H642.551V609.28h-41.04V520.5Z" transform="translate(413.846 529.443)" fill="rgba(3,109,206,0.02)"/>
      <path id="Path_49873" data-name="Path 49873" d="M320.537,544.009v32.376h-4.48v10.979h9.022V577.1h22.5V544.009Z" transform="translate(300.456 556.716)" fill="rgba(3,109,206,0.02)"/>
      <path id="Path_49874" data-name="Path 49874" d="M278.906,537.04v44.734H298.83v13.673h56.94V560.863H327.3V537.04Z" transform="translate(257.361 548.632)" fill="rgba(3,109,206,0.02)"/>
      <rect id="Rectangle_7760" data-name="Rectangle 7760" width="12.038" height="3.162" transform="translate(577.469 1066.56)" fill="rgba(3,109,206,0.02)"/>
      <rect id="Rectangle_7761" data-name="Rectangle 7761" width="8.664" height="10.599" transform="translate(604.469 1087.4)" fill="rgba(3,109,206,0.02)"/>
      <rect id="Rectangle_7762" data-name="Rectangle 7762" width="12.111" height="9.053" transform="translate(861.605 1121.351)" fill="rgba(3,109,206,0.02)"/>
      <path id="Path_49875" data-name="Path 49875" d="M425.684,591.39h21.574v-7.255h19.732V573.756H477.67V591.39h21.574v-23.8H503.5v14.815h14.142v-8.651h12.02V591.39h13.789v.927H554.54V555.2H543.447V565h-6.629V547.363H515.243v17.742h-.11V497.931H458.2v69.66h5.061v6.165h-16V565H432.842V547.363H411.27v26.393h14.414Z" transform="translate(410.902 503.266)" fill="rgba(3,109,206,0.02)"/>
      <rect id="Rectangle_7763" data-name="Rectangle 7763" width="4.765" height="36.962" transform="translate(759.684 1019.447)" fill="rgba(3,109,206,0.02)"/>
      <rect id="Rectangle_7764" data-name="Rectangle 7764" width="4.765" height="36.962" transform="translate(773.359 1019.447)" fill="rgba(3,109,206,0.02)"/>
      <rect id="Rectangle_7765" data-name="Rectangle 7765" width="42.653" height="2.931" transform="translate(875.382 994.162)" fill="rgba(3,109,206,0.02)"/>
      <rect id="Rectangle_7766" data-name="Rectangle 7766" width="3.942" height="4.823" transform="translate(855.251 1005.022)" fill="rgba(3,109,206,0.02)"/>
      <rect id="Rectangle_7767" data-name="Rectangle 7767" width="45.952" height="15.442" transform="translate(1086.932 980.187)" fill="rgba(3,109,206,0.02)"/>
      <rect id="Rectangle_7768" data-name="Rectangle 7768" width="21.477" height="26.274" transform="translate(1079.266 1104.131)" fill="rgba(3,109,206,0.02)"/>
      <rect id="Rectangle_7769" data-name="Rectangle 7769" width="14.01" height="17.14" transform="translate(1034.103 1117.31)" fill="rgba(3,109,206,0.02)"/>
      <rect id="Rectangle_7770" data-name="Rectangle 7770" width="21.699" height="26.549" transform="translate(829.316 1102.378)" fill="rgba(3,109,206,0.02)"/>
      <rect id="Rectangle_7771" data-name="Rectangle 7771" width="19.047" height="23.302" transform="translate(768.659 1083.931)" fill="rgba(3,109,206,0.02)"/>
      <path id="Path_49876" data-name="Path 49876" d="M514.613,463.391v-69.66h-56.94v37.7H419.008V419.867h10.565v-6.413H419.008V393.731H384.672v26.136h-8.979v43.524h43.314V434.7h38.666v28.693Z" transform="translate(369.634 382.394)" fill="rgba(3,109,206,0.02)"/>
      <path id="Path_49877" data-name="Path 49877" d="M358.528,399.974h34.333v-7.761h9.111V365.821h-9.111V330.314H358.528Z" transform="translate(349.721 308.831)" fill="rgba(3,109,206,0.02)"/>
      <path id="Path_49878" data-name="Path 49878" d="M594.706,516.122h25.363v1.724H594.706ZM562.539,338.16v29.022h13.038v148.94h.894v1.726H454.926v8.331H576.471V636.03h5.074v20.684h3.171V636.03h9.99V599.686h9.025v31.793h-4.752v2.227h4.752v23.008h3.961V633.706h27.08v-2.227h-27.08V599.686h45.563V593.8H607.692v-7.6H603.73v7.6h-9.025V526.179h25.365v43.5h39.213v-43.5h3.022v-8.331h-3.022v-1.726h16.211V367.182H662.305v-2.11h-7.981v2.11H586.262V338.16Z" transform="translate(461.543 317.932)" fill="rgba(3,109,206,0.02)"/>
      <path id="Path_49879" data-name="Path 49879" d="M425.844,368.341V410.8H402.8v-4.162H371.9V417.76h30.9v-1.1h23.041v16.388h11.822V416.656h21.656V410.8H437.666V368.341Z" transform="translate(365.237 352.942)" fill="rgba(3,109,206,0.02)"/>
      <rect id="Rectangle_7772" data-name="Rectangle 7772" width="3.169" height="60.616" transform="translate(1113.491 562.352)" fill="rgba(3,109,206,0.02)"/>
      <rect id="Rectangle_7773" data-name="Rectangle 7773" width="5.547" height="17.651" transform="translate(857.573 630.319)" fill="rgba(3,109,206,0.02)"/>
      <path id="Path_49880" data-name="Path 49880" d="M526.35,427.9v-9.556h14.707v-3.512H526.35v-6.044H510.727v6.044H475.506v-6.044h-8.469v6.044H453.189v3.512h13.848v.806h8.469v-.806h35.221V427.9Z" transform="translate(459.528 399.86)" fill="rgba(3,109,206,0.02)"/>
      <rect id="Rectangle_7774" data-name="Rectangle 7774" width="10.489" height="12.83" transform="translate(942.011 730.612)" fill="rgba(3,109,206,0.02)"/>
      <path id="Path_49881" data-name="Path 49881" d="M739.468,412.972V354.514H711.712v-4.059H702.53V333.083H689.691v17.373H654.3V338.962h-5.651V261.671h-1.583v18.323H633V262.36H611.426v26.393h14.416v3.326H620v10.513h5.839v3.8h21.226v32.575H634.7v11.493H620v-26.2H609.037v26.2H581.3V327.383h-.2v23.073H562.685v-4.912h-.853v4.912H536.258v-3.981H532.3v3.981H521.065v-7.143h-.851v7.143h-9.459V345.5h-8.964v-2.186h-.2V345.5H479.757v4.957H460.947v13H448.195V302.592H428.6v60.862H377.092v-2.745h25.939V345.544H377.092V321.227H343.431v58.458h27.756v4.059h9.182v17.373h12.839V383.743H428.6v11.493h5.648v77.291h1.585V454.2H449.9v17.634h21.572V445.446H457.057v-3.326H462.9V431.607h-5.839v-3.8H435.831V395.237h12.364V383.743h14.7v26.2h10.966v-26.2h27.732v23.073h.2V383.743h18.423v4.914h.851v-4.914h25.576v3.981H550.6v-3.981h11.23v7.143h.853v-7.143h9.459V388.7h8.962v2.186h.2V388.7h21.838v-4.957h18.809v-13H634.7v60.862h19.6V370.745h51.505v2.745H679.867v15.167h25.939v24.315Z" transform="translate(332.209 229.205)" fill="rgba(3,109,206,0.02)"/>
      <path id="Path_49882" data-name="Path 49882" d="M544.757,286.009H516.014v1.62h-1.689v26.276H535.8V296.338h8.955Z" transform="translate(530.445 257.437)" fill="rgba(3,109,206,0.02)"/>
      <rect id="Rectangle_7775" data-name="Rectangle 7775" width="9.422" height="11.528" transform="translate(703.155 759.171)" fill="rgba(3,109,206,0.02)"/>
      <path id="Path_49883" data-name="Path 49883" d="M350.917,392.523h62.5v-7.033H443.39v-2.9H413.414V372.66h-62.5Z" transform="translate(340.893 357.952)" fill="rgba(3,109,206,0.02)"/>
      <rect id="Rectangle_7776" data-name="Rectangle 7776" width="14.182" height="17.351" transform="translate(1081.612 660.814)" fill="rgba(3,109,206,0.02)"/>
      <path id="Path_49884" data-name="Path 49884" d="M527.574,352.862v57.689H499.486v1.115H483.444v6.082h16.042v34.061h9.523v27.9h11.763V463.73h6.8V451.809h5.635V438.391h5.633v-41.15h2.337V360.279h-2.337v-7.417Z" transform="translate(494.623 334.986)" fill="rgba(3,109,206,0.02)"/>
      <rect id="Rectangle_7777" data-name="Rectangle 7777" width="3.961" height="4.847" transform="translate(955.82 764.751)" fill="rgba(3,109,206,0.02)"/>
      <rect id="Rectangle_7778" data-name="Rectangle 7778" width="3.32" height="4.061" transform="translate(952.5 789.496)" fill="rgba(3,109,206,0.02)"/>
      <rect id="Rectangle_7779" data-name="Rectangle 7779" width="28.583" height="34.968" transform="translate(897.98 763.746)" fill="rgba(3,109,206,0.02)"/>
      <rect id="Rectangle_7780" data-name="Rectangle 7780" width="14.262" height="17.448" transform="translate(889.662 810.311)" fill="rgba(3,109,206,0.02)"/>
      <rect id="Rectangle_7781" data-name="Rectangle 7781" width="3.089" height="3.78" transform="translate(974.977 769.595)" fill="rgba(3,109,206,0.02)"/>
      <rect id="Rectangle_7782" data-name="Rectangle 7782" width="17.755" height="21.721" transform="translate(985.879 683.608)" fill="rgba(3,109,206,0.02)"/>
      <rect id="Rectangle_7783" data-name="Rectangle 7783" width="7.821" height="9.569" transform="translate(976.522 713.561)" fill="rgba(3,109,206,0.02)"/>
      <rect id="Rectangle_7784" data-name="Rectangle 7784" width="2.197" height="2.687" transform="translate(814.174 824.433)" fill="rgba(3,109,206,0.02)"/>
      <rect id="Rectangle_7785" data-name="Rectangle 7785" width="12.096" height="14.798" transform="translate(830.867 744.786)" fill="rgba(3,109,206,0.02)"/>
      <rect id="Rectangle_7786" data-name="Rectangle 7786" width="36.115" height="5.106" transform="translate(930.799 706.664)" fill="rgba(3,109,206,0.02)"/>
      <rect id="Rectangle_7787" data-name="Rectangle 7787" width="6.214" height="7.601" transform="translate(795.103 839.944)" fill="rgba(3,109,206,0.02)"/>
      <rect id="Rectangle_7788" data-name="Rectangle 7788" width="59.318" height="4.784" transform="translate(648.93 713.561)" fill="rgba(3,109,206,0.02)"/>
      <rect id="Rectangle_7789" data-name="Rectangle 7789" width="31.635" height="6.897" transform="translate(805.279 706.664)" fill="rgba(3,109,206,0.02)"/>
      <rect id="Rectangle_7790" data-name="Rectangle 7790" width="3.804" height="4.655" transform="translate(1131.873 602.695)" fill="rgba(3,109,206,0.02)"/>
      <rect id="Rectangle_7791" data-name="Rectangle 7791" width="7.193" height="83.512" transform="translate(1117.232 489.005)" fill="rgba(3,109,206,0.02)"/>
      <rect id="Rectangle_7792" data-name="Rectangle 7792" width="12.251" height="14.988" transform="translate(962.726 752.186)" fill="rgba(3,109,206,0.02)"/>
      <rect id="Rectangle_7793" data-name="Rectangle 7793" width="5.597" height="3.92" transform="translate(985.879 791.928)" fill="rgba(3,109,206,0.02)"/>
      <rect id="Rectangle_7794" data-name="Rectangle 7794" width="3.264" height="33.087" transform="translate(1133.774 617.862)" fill="rgba(3,109,206,0.02)"/>
      <rect id="Rectangle_7795" data-name="Rectangle 7795" width="8.795" height="6.363" transform="translate(913.828 564.067)" fill="rgba(3,109,206,0.02)"/>
      <rect id="Rectangle_7796" data-name="Rectangle 7796" width="12.113" height="9.053" transform="translate(908.097 621.269)" fill="rgba(3,109,206,0.02)"/>
      <path id="Path_49885" data-name="Path 49885" d="M408.584,375.281h11.092v-9.8h6.631v17.634h21.574V365.371h.108v67.174h56.94v-69.66h-5.061V356.72h16v8.759h14.416v17.634h21.572V356.72H537.441V339.086H515.867v7.255H496.136V356.72H485.454V339.086H463.88v23.8h-4.251V348.069H445.488v8.651H433.465V339.086H419.676v-.927H408.584Z" transform="translate(407.787 317.931)" fill="rgba(3,109,206,0.02)"/>
      <rect id="Rectangle_7797" data-name="Rectangle 7797" width="4.765" height="36.962" transform="translate(1017.365 695.266)" fill="rgba(3,109,206,0.02)"/>
      <rect id="Rectangle_7798" data-name="Rectangle 7798" width="4.765" height="36.962" transform="translate(1003.692 695.266)" fill="rgba(3,109,206,0.02)"/>
      <rect id="Rectangle_7799" data-name="Rectangle 7799" width="42.653" height="2.929" transform="translate(863.778 754.581)" fill="rgba(3,109,206,0.02)"/>
      <rect id="Rectangle_7800" data-name="Rectangle 7800" width="3.942" height="4.823" transform="translate(922.621 741.827)" fill="rgba(3,109,206,0.02)"/>
      <rect id="Rectangle_7801" data-name="Rectangle 7801" width="45.952" height="15.442" transform="translate(648.93 756.046)" fill="rgba(3,109,206,0.02)"/>
      <path id="Path_49886" data-name="Path 49886" d="M350.756,339.6H341.8v10.329h28.743v-1.62h1.691V322.037H350.756Z" transform="translate(330.315 299.23)" fill="rgba(3,109,206,0.02)"/>
      <rect id="Rectangle_7802" data-name="Rectangle 7802" width="14.01" height="17.14" transform="translate(733.701 617.225)" fill="rgba(3,109,206,0.02)"/>
      <rect id="Rectangle_7803" data-name="Rectangle 7803" width="21.699" height="26.549" transform="translate(930.799 622.748)" fill="rgba(3,109,206,0.02)"/>
      <rect id="Rectangle_7804" data-name="Rectangle 7804" width="19.047" height="23.302" transform="translate(994.108 644.441)" fill="rgba(3,109,206,0.02)"/>
      <path id="Path_49887" data-name="Path 49887" d="M57.043,523.41v69.66H74v-7.763h9.111V558.916H74V523.41Z" transform="translate(0 532.822)" fill="rgba(3,109,206,0.02)"/>
      <path id="Path_49888" data-name="Path 49888" d="M195.219,531.255v29.024h13.038v41.88H330v-41.88H294.983v-2.113H287v2.113H218.942V531.255Z" transform="translate(160.284 541.921)" fill="rgba(3,109,206,0.02)"/>
      <rect id="Rectangle_7805" data-name="Rectangle 7805" width="11.822" height="5.711" transform="translate(122.502 1138.367)" fill="rgba(3,109,206,0.02)"/>
      <rect id="Rectangle_7806" data-name="Rectangle 7806" width="19.598" height="92.644" transform="translate(298.332 985.254)" fill="rgba(3,109,206,0.02)"/>
      <rect id="Rectangle_7807" data-name="Rectangle 7807" width="3.169" height="60.616" transform="translate(444.912 979.437)" fill="rgba(3,109,206,0.02)"/>
      <rect id="Rectangle_7808" data-name="Rectangle 7808" width="8.21" height="83.436" transform="translate(510.675 901.818)" fill="rgba(3,109,206,0.02)"/>
      <rect id="Rectangle_7809" data-name="Rectangle 7809" width="5.547" height="17.651" transform="translate(188.991 1047.406)" fill="rgba(3,109,206,0.02)"/>
      <rect id="Rectangle_7810" data-name="Rectangle 7810" width="10.571" height="12.934" transform="translate(500.104 1105.883)" fill="rgba(3,109,206,0.02)"/>
      <path id="Path_49889" data-name="Path 49889" d="M249.261,556.208V497.749H215.6v18.976H189.66v15.167H215.6v24.315Z" transform="translate(153.836 503.055)" fill="rgba(3,109,206,0.02)"/>
      <rect id="Rectangle_7811" data-name="Rectangle 7811" width="28.743" height="10.329" transform="translate(377.879 960.53)" fill="rgba(3,109,206,0.02)"/>
      <rect id="Rectangle_7812" data-name="Rectangle 7812" width="14.183" height="17.351" transform="translate(413.033 1077.898)" fill="rgba(3,109,206,0.02)"/>
      <path id="Path_49890" data-name="Path 49890" d="M194.346,545.957V585.1h13.606V553.375h-2.337v-7.417Z" transform="translate(159.271 558.976)" fill="rgba(3,109,206,0.02)"/>
      <rect id="Rectangle_7813" data-name="Rectangle 7813" width="23.302" height="6.936" transform="translate(508.766 1128.855)" fill="rgba(3,109,206,0.02)"/>
      <rect id="Rectangle_7814" data-name="Rectangle 7814" width="17.755" height="21.721" transform="translate(317.297 1100.693)" fill="rgba(3,109,206,0.02)"/>
      <rect id="Rectangle_7815" data-name="Rectangle 7815" width="7.821" height="9.569" transform="translate(307.942 1130.645)" fill="rgba(3,109,206,0.02)"/>
      <rect id="Rectangle_7816" data-name="Rectangle 7816" width="36.113" height="5.106" transform="translate(262.219 1123.749)" fill="rgba(3,109,206,0.02)"/>
      <rect id="Rectangle_7817" data-name="Rectangle 7817" width="31.635" height="6.897" transform="translate(136.7 1123.749)" fill="rgba(3,109,206,0.02)"/>
      <rect id="Rectangle_7818" data-name="Rectangle 7818" width="3.804" height="4.655" transform="translate(463.293 1019.779)" fill="rgba(3,109,206,0.02)"/>
      <rect id="Rectangle_7819" data-name="Rectangle 7819" width="7.193" height="83.512" transform="translate(488.611 906.09)" fill="rgba(3,109,206,0.02)"/>
      <rect id="Rectangle_7820" data-name="Rectangle 7820" width="7.193" height="83.512" transform="translate(448.651 906.092)" fill="rgba(3,109,206,0.02)"/>
      <rect id="Rectangle_7821" data-name="Rectangle 7821" width="7.193" height="83.512" transform="translate(408.691 906.09)" fill="rgba(3,109,206,0.02)"/>
      <path id="Path_49891" data-name="Path 49891" d="M183.842,492.564v20.142h-9.459v-2.845h2.724v-9.2h-2.724v-5.91h-8.962v-2.186h-.2v2.186H143.385v17.956H137.49v-4.62H126.524v4.62H99.459v-8.94H97.874v8.94H57.043v20.289h40.83v88.782h1.585V603.456h14.066V621.09H135.1V594.7H120.685v-3.327h5.838V580.858h-5.838v-3.8H99.459V532.994h27.065v26.2H137.49v-26.2h27.732v23.071h.2V532.994h18.42v4.912h.851v-4.912H285.58V512.706H199.886v-16.98h-3.964v16.98h-11.23V492.564Z" transform="translate(0.001 497.039)" fill="rgba(3,109,206,0.02)"/>
      <path id="Path_49892" data-name="Path 49892" d="M277.526,499.183H268.5v31.046H246v33.089h27.043V530.941h4.48Z" transform="translate(219.193 504.718)" fill="rgba(3,109,206,0.02)"/>
      <rect id="Rectangle_7822" data-name="Rectangle 7822" width="12.035" height="3.162" transform="translate(523.73 1099.036)" fill="rgba(3,109,206,0.02)"/>
      <rect id="Rectangle_7823" data-name="Rectangle 7823" width="8.664" height="10.599" transform="translate(500.102 1070.757)" fill="rgba(3,109,206,0.02)"/>
      <rect id="Rectangle_7824" data-name="Rectangle 7824" width="8.796" height="6.363" transform="translate(245.246 981.152)" fill="rgba(3,109,206,0.02)"/>
      <rect id="Rectangle_7825" data-name="Rectangle 7825" width="12.111" height="9.053" transform="translate(239.518 1038.353)" fill="rgba(3,109,206,0.02)"/>
      <path id="Path_49893" data-name="Path 49893" d="M99.056,531.255v37.122h11.092v-9.8h6.631v17.634h21.574V558.466h.11v43.693H195.4V555.98h-5.061v-6.165h16v8.759h14.416v17.634h21.572V549.816H227.913V532.179H206.339v7.255H186.607v10.381H175.926V532.179H154.352v23.8H150.1V541.165H135.959v8.651h-12.02V532.179H110.147v-.924Z" transform="translate(48.735 541.921)" fill="rgba(3,109,206,0.02)"/>
      <rect id="Rectangle_7826" data-name="Rectangle 7826" width="4.765" height="31.728" transform="translate(348.786 1112.35)" fill="rgba(3,109,206,0.02)"/>
      <rect id="Rectangle_7827" data-name="Rectangle 7827" width="4.767" height="31.728" transform="translate(335.111 1112.35)" fill="rgba(3,109,206,0.02)"/>
      <rect id="Rectangle_7828" data-name="Rectangle 7828" width="14.01" height="17.14" transform="translate(65.12 1034.309)" fill="rgba(3,109,206,0.02)"/>
      <rect id="Rectangle_7829" data-name="Rectangle 7829" width="21.699" height="26.549" transform="translate(262.219 1039.833)" fill="rgba(3,109,206,0.02)"/>
      <rect id="Rectangle_7830" data-name="Rectangle 7830" width="19.047" height="23.302" transform="translate(325.529 1061.526)" fill="rgba(3,109,206,0.02)"/>
    </g>
  </g>
</svg>
