<svg xmlns="http://www.w3.org/2000/svg" xmlns:xlink="http://www.w3.org/1999/xlink" width="64" height="64" viewBox="0 0 64 64">
  <defs>
    <clipPath id="clip-PPT">
      <rect width="64" height="64"/>
    </clipPath>
  </defs>
  <g id="PPT" clip-path="url(#clip-PPT)">
    <g id="Group_83644" data-name="Group 83644" transform="translate(-1.962 -3.66)">
      <g id="Group_83645" data-name="Group 83645" transform="translate(4.962 4.25)">
        <path id="Path_130984" data-name="Path 130984" d="M80.988,4.337h30.075l.137.248c-.223.215-.133.493-.133.744-.006,3.818-.006,3.153,0,6.972a4.258,4.258,0,0,0,4.325,4.507c.031.265.24.408.407.575q5.745,5.748,11.493,11.492c.166.166.3.384.58.39q0,16.888-.007,33.776a4.1,4.1,0,0,1-1.623,3.285c-.437.353-1.051.405-1.386.9H80.462c-.035-.327-.345-.3-.541-.392a4.145,4.145,0,0,1-2.471-3.9c-.037-1.372,0-2.745,0-4.118l39.824.006c.066,0,.131,0,.2,0a2.072,2.072,0,0,0,1.989-1.977c.023-.589-.013-1.18-.022-1.77.01-.349.028-.7.028-1.048q0-9.939,0-19.879c0-1.914-.733-2.64-2.664-2.64H78.29c-.284,0-.568-.013-.852-.021,0-9.045,0-13.607,0-22.652a4.241,4.241,0,0,1,3.042-4.177c.187-.06.471,0,.5-.316" transform="translate(-69.035 -4.312)" fill="#e1e4e6"/>
        <path id="Path_130987" data-name="Path 130987" d="M34.8,217.551q-3.016-.011-6.032-.022a2.133,2.133,0,0,1-2.367-2.344q-.006-10.263,0-20.526a2.133,2.133,0,0,1,2.368-2.343q3.016-.014,6.032-.022c.284.007.568.021.852.021H74.164c1.932,0,2.664.726,2.664,2.64q0,9.939,0,19.879c0,.349-.018.7-.028,1.048a2.433,2.433,0,0,1-2.593,1.656q-19.279-.023-38.557-.008c-.284,0-.568.013-.851.02M47.362,205.3q0,2.265,0,4.529c0,.065,0,.131.01.2.066.747.491,1.2,1.134,1.2.61,0,1.006-.412,1.062-1.171a10.066,10.066,0,0,0,.01-1.573c-.045-.542.176-.667.674-.648.83.031,1.663.023,2.493-.016a3.918,3.918,0,0,0,3.781-4,3.982,3.982,0,0,0-3.477-4.293,35.433,35.433,0,0,0-4.13-.078c-1.138-.013-1.548.4-1.556,1.528-.01,1.444,0,2.888,0,4.332m-11.328,0c0,.5,0,1.006,0,1.509.006,1.093-.019,2.188.035,3.279a1.1,1.1,0,0,0,1.124,1.128c.621,0,1.011-.421,1.052-1.174a13.5,13.5,0,0,0,.008-1.574c-.03-.477.11-.663.618-.644.851.033,1.707.024,2.558-.017a3.882,3.882,0,0,0,3.761-3.872,3.967,3.967,0,0,0-3.462-4.421,35.657,35.657,0,0,0-4.13-.077c-1.133-.014-1.553.409-1.561,1.532-.011,1.444,0,2.888,0,4.331m25.793.86h.006c0,1.334-.016,2.668.006,4a1.02,1.02,0,0,0,1.033,1.115,1.059,1.059,0,0,0,1.138-1.021,5.036,5.036,0,0,0,.033-.719c0-2.406.015-4.812-.01-7.218-.005-.5.148-.648.633-.622a20.287,20.287,0,0,0,2.033,0c.815-.038,1.219-.416,1.218-1.071,0-.679-.445-1.075-1.283-1.079q-3.773-.017-7.546,0c-.831,0-1.294.4-1.3,1.07s.445,1.058,1.282,1.085c.721.024,1.444.029,2.165,0,.452-.019.61.124.6.59-.028,1.29-.01,2.581-.01,3.871" transform="translate(-26.396 -165.125)" fill="#f05642"/>
        <path id="Path_130988" data-name="Path 130988" d="M281.883,1.585l16.543,16.561c-.219.216-.5.128-.749.128q-5.8.015-11.606.018a4.258,4.258,0,0,1-4.325-4.507q0-5.728,0-11.455c0-.251-.091-.529.133-.745" transform="translate(-239.719 -1.585)" fill="#b0b7bd"/>
        <path id="Path_130989" data-name="Path 130989" d="M77.459,337.326c.284-.007.567-.02.851-.02q19.279,0,38.557.009a2.434,2.434,0,0,0,2.592-1.656c.009.59.046,1.181.022,1.77a2.072,2.072,0,0,1-1.989,1.977c-.065,0-.131,0-.2,0L77.473,339.4q-.007-1.037-.014-2.074" transform="translate(-69.057 -284.9)" fill="#c9d0d7"/>
        <path id="Path_130990" data-name="Path 130990" d="M308.1,102.381q5.8-.007,11.606-.018c.252,0,.53.088.749-.128.194.173.127.406.128.616q0,5.994,0,11.988c-.276-.006-.414-.224-.58-.39q-5.749-5.744-11.493-11.492c-.167-.167-.375-.31-.407-.575" transform="translate(-261.752 -85.674)" fill="#c9d0d7"/>
        <path id="Path_130991" data-name="Path 130991" d="M153.792,241.465c0-1.444-.009-2.888,0-4.332.008-1.128.419-1.542,1.557-1.528a35.4,35.4,0,0,1,4.13.078,3.982,3.982,0,0,1,3.477,4.293,3.918,3.918,0,0,1-3.781,4c-.83.039-1.663.047-2.493.016-.5-.018-.72.106-.674.648a10.085,10.085,0,0,1-.01,1.573c-.056.759-.452,1.171-1.062,1.171-.643,0-1.068-.448-1.134-1.2-.006-.065-.01-.131-.01-.2q0-2.264,0-4.528m3.869.432c.394,0,.788.015,1.182,0a2.067,2.067,0,0,0,.183-4.113c-.868-.082-1.748-.037-2.622-.06-.343-.009-.39.184-.387.46.008.7,0,1.4,0,2.1,0,1.621,0,1.621,1.642,1.615" transform="translate(-132.827 -201.291)" fill="#fefbfb"/>
        <path id="Path_130992" data-name="Path 130992" d="M84.956,241.469c0-1.444-.008-2.888,0-4.331.008-1.123.429-1.546,1.561-1.532a35.7,35.7,0,0,1,4.13.077,3.967,3.967,0,0,1,3.462,4.421,3.882,3.882,0,0,1-3.761,3.872c-.851.041-1.707.05-2.558.017-.508-.02-.648.167-.618.644a13.463,13.463,0,0,1-.008,1.574c-.04.753-.43,1.171-1.051,1.174a1.1,1.1,0,0,1-1.124-1.128c-.055-1.091-.029-2.186-.035-3.279,0-.5,0-1.006,0-1.509m3.848.427c.415,0,.831.017,1.246,0A2.039,2.039,0,0,0,92,239.96a2.017,2.017,0,0,0-1.754-2.171c-.888-.087-1.789-.042-2.684-.067-.338-.009-.392.178-.388.457.009.7,0,1.4,0,2.1,0,1.627,0,1.627,1.632,1.619" transform="translate(-75.319 -201.292)" fill="#fefbfb"/>
        <path id="Path_130993" data-name="Path 130993" d="M221.225,242.954c0-1.29-.018-2.581.01-3.871.01-.466-.148-.608-.6-.59-.721.03-1.444.025-2.165,0-.837-.028-1.289-.427-1.282-1.085s.469-1.066,1.3-1.07q3.773-.014,7.546,0c.839,0,1.282.4,1.283,1.079,0,.655-.4,1.033-1.218,1.071a20.292,20.292,0,0,1-2.033,0c-.485-.026-.638.125-.633.622.024,2.406.012,4.812.01,7.218a5.033,5.033,0,0,1-.033.719,1.059,1.059,0,0,1-1.138,1.021,1.02,1.02,0,0,1-1.033-1.115c-.022-1.334-.006-2.668-.006-4h-.006" transform="translate(-185.794 -201.917)" fill="#fefbfb"/>
        <path id="Path_130994" data-name="Path 130994" d="M168.974,252.754c-1.642.006-1.642.006-1.642-1.615,0-.7.006-1.4,0-2.1,0-.276.044-.47.387-.46.874.023,1.754-.022,2.622.06a2.067,2.067,0,0,1-.183,4.113c-.393.018-.788,0-1.182,0" transform="translate(-144.141 -212.148)" fill="#f05642"/>
        <path id="Path_130995" data-name="Path 130995" d="M100.061,252.752c-1.632.007-1.632.007-1.632-1.619,0-.7.006-1.4,0-2.1,0-.279.05-.466.388-.457.895.025,1.8-.02,2.684.067a2.017,2.017,0,0,1,1.754,2.171,2.039,2.039,0,0,1-1.946,1.933c-.414.021-.83,0-1.246,0" transform="translate(-86.574 -212.147)" fill="#f05642"/>
      </g>
    </g>
  </g>
</svg>
