<svg xmlns="http://www.w3.org/2000/svg" xmlns:xlink="http://www.w3.org/1999/xlink" width="64" height="64" viewBox="0 0 64 64">
  <defs>
    <clipPath id="clip-Zip">
      <rect width="64" height="64"/>
    </clipPath>
  </defs>
  <g id="Zip" clip-path="url(#clip-Zip)">
    <g id="Group_83641" data-name="Group 83641" transform="translate(0.928 0.925)">
      <g id="Group_83642" data-name="Group 83642" transform="translate(0.071 0.075)">
        <path id="Path_130974" data-name="Path 130974" d="M.071,90.178V88.612c.146-.07.153-.226.2-.349a3.109,3.109,0,0,1,3.052-2.076c.677-.006,1.355.008,2.032.013l24.484,0q0,2.169,0,4.337c0,1.082.056.948-.922.962a1.045,1.045,0,0,0-1.131,1.325c.1.493.564.8,1.253.827.8.034.8.034.8.847,0,1.1,0,1.1-1.076,1.235a1.073,1.073,0,0,0,0,2.14c.239.026.481.011.722.015.176,0,.334.053.337.26a3.74,3.74,0,0,1-.074,1.661c-.161.334-.712.083-1.065.222a.354.354,0,0,1-.059.009.966.966,0,0,0-.853,1.112.978.978,0,0,0,.971.955c1.1.1,1.1.1,1.1,1.213,0,.181-.008.362,0,.542.01.276-.113.408-.393.4a6.984,6.984,0,0,0-.722.011.971.971,0,0,0-.952,1.032c-.011.716.395,1.075,1.411,1.094.541.011.672.193.671.706a33.608,33.608,0,0,0,.048,3.729,2.66,2.66,0,0,0-1.135,2.55c.031.5-.007,1-.014,1.5a4.256,4.256,0,0,0-4.218,4.335c-.01,1.04-.013,2.08-.02,3.12q-7.916,0-15.831,0a3.174,3.174,0,0,1-3.319-2.782Q3.01,106.266.659,92.975a12.347,12.347,0,0,0-.588-2.8" transform="translate(-0.071 -72.345)" fill="#f2d45b"/>
        <path id="Path_130975" data-name="Path 130975" d="M228.119,88.734V90.18c-.2.156-.17.4-.207.6-.5,2.8-.989,5.605-1.484,8.408q-1.787,10.125-3.583,20.248a3.2,3.2,0,0,1-3.518,2.9H203.677c-.006-1.04-.009-2.079-.02-3.119a4.268,4.268,0,0,0-4.217-4.336c-.007-.5-.044-1-.014-1.5a2.657,2.657,0,0,0-1.141-2.549,6.78,6.78,0,0,0,.064-1.558c.014-.774,0-.774.8-.783.85-.009,1.252-.332,1.273-1.019s-.424-1.1-1.262-1.135c-.806-.038-.806-.038-.807-.838,0-1.119,0-1.119,1.066-1.242a1.074,1.074,0,0,0,.019-2.142c-1.087-.14-1.087-.14-1.086-1.224,0-.12.009-.242,0-.361-.03-.359.122-.52.488-.5a1.964,1.964,0,0,0,.947-.122,1.006,1.006,0,0,0,.623-1.173.974.974,0,0,0-.88-.853c-.378-.07-.9.209-1.108-.187a2.965,2.965,0,0,1-.07-1.183,1.74,1.74,0,0,0,0-.18c-.065-.473.135-.672.61-.613a2.431,2.431,0,0,0,.481,0,.979.979,0,0,0,.979-1.067c0-.658-.368-.966-1.262-1.067-.807-.092-.807-.092-.807-.912,0-1.063,0-1.063,1.064-1.183a1.072,1.072,0,0,0,.023-2.139,3.212,3.212,0,0,0-.6-.009c-.366.026-.5-.136-.491-.5.014-.883,0-1.766,0-2.649l24.484,0c.736,0,1.473-.026,2.208-.006a3.038,3.038,0,0,1,2.671,1.63,9.192,9.192,0,0,1,.409.908" transform="translate(-166.427 -72.347)" fill="#f8d236"/>
        <path id="Path_130976" data-name="Path 130976" d="M84.084,13.929l-24.484,0H57.452l-24.484,0c.008-3.232.073-6.465,0-9.695-.043-1.923.481-3.389,2.4-4.106.013,0,.016-.035.024-.054H52.742c.628.288,1.3.45,1.913.8,2.18,1.236,4.386,2.426,6.566,3.662A6.513,6.513,0,0,0,64.55,5.4c5.338-.021,10.677-.011,16.015-.008a3.233,3.233,0,0,1,3.5,3.486q.009,2.528.023,5.056" transform="translate(-27.68 -0.075)" fill="#ebbc07"/>
        <path id="Path_130980" data-name="Path 130980" d="M155.778,283.915a6.172,6.172,0,0,1-1.851-.811,4.222,4.222,0,0,1-1.76-3.507c-.016-2.459-.016-4.918-.022-7.378.006-1.04.01-2.08.02-3.12a4.256,4.256,0,0,1,4.218-4.335c0,1.021-.011,2.042.006,3.062a1.086,1.086,0,0,0,1.17,1.15c.62.006,1.241,0,1.861,0,.874,0,1.286-.4,1.294-1.271.008-.981,0-1.961,0-2.942a4.268,4.268,0,0,1,4.217,4.336c.011,1.04.014,2.079.02,3.119q-.009,3.269-.018,6.538c0,3.042-.775,4.147-3.615,5.158Zm4.909-7.467h-.013a10.369,10.369,0,0,0-.007-1.2,2.126,2.126,0,0,0-4.242.08,18.389,18.389,0,0,0,0,2.282,2.139,2.139,0,0,0,2.108,2.059,2.161,2.161,0,0,0,2.154-2.08c.027-.379,0-.761,0-1.141" transform="translate(-127.703 -222.222)" fill="#8c9695"/>
        <path id="Path_130982" data-name="Path 130982" d="M174.4,86.292h2.148c0,.883.014,1.766,0,2.649-.005.36.124.522.491.5a3.21,3.21,0,0,1,.6.009,1.072,1.072,0,0,1-.023,2.138c-1.065.12-1.065.12-1.064,1.183,0,.821,0,.821.807.912.894.1,1.258.41,1.262,1.067a.979.979,0,0,1-.979,1.067,2.419,2.419,0,0,1-.481,0c-.476-.059-.676.14-.61.613a1.731,1.731,0,0,1,0,.18,2.963,2.963,0,0,0,.069,1.183c.208.4.729.117,1.108.187a.974.974,0,0,1,.88.853,1.006,1.006,0,0,1-.623,1.173,1.963,1.963,0,0,1-.947.122c-.366-.022-.518.139-.488.5.01.119,0,.241,0,.361,0,1.084,0,1.084,1.086,1.224a1.074,1.074,0,0,1-.02,2.141c-1.068.123-1.068.123-1.066,1.242,0,.8,0,.8.807.838.837.039,1.282.44,1.261,1.135s-.423,1.01-1.273,1.019c-.794.009-.785.009-.8.783a6.794,6.794,0,0,1-.063,1.558,2.907,2.907,0,0,0-2.03,0,33.567,33.567,0,0,1-.048-3.729c0-.513-.13-.7-.671-.706-1.016-.02-1.422-.379-1.411-1.094a.972.972,0,0,1,.952-1.032,6.989,6.989,0,0,1,.722-.011c.28.006.4-.126.393-.4-.006-.18,0-.361,0-.542,0-1.115,0-1.115-1.1-1.213a.978.978,0,0,1-.971-.955.966.966,0,0,1,.853-1.112.338.338,0,0,0,.059-.009c.353-.139.9.112,1.065-.222a3.74,3.74,0,0,0,.074-1.661c0-.207-.16-.256-.336-.26-.241,0-.484.011-.722-.015a1.073,1.073,0,0,1,0-2.14c1.077-.135,1.077-.135,1.076-1.235,0-.812,0-.812-.8-.847-.689-.029-1.15-.334-1.253-.827a1.045,1.045,0,0,1,1.131-1.325c.978-.014.92.119.922-.962q0-2.169,0-4.337" transform="translate(-144.626 -72.435)" fill="#444"/>
        <path id="Path_130983" data-name="Path 130983" d="M179.639,238.622a2.908,2.908,0,0,1,2.03,0,2.659,2.659,0,0,1,1.141,2.549c-.03.5.007,1,.014,1.5,0,.981.005,1.962,0,2.942-.007.869-.419,1.267-1.294,1.271-.621,0-1.241.005-1.861,0a1.086,1.086,0,0,1-1.17-1.15c-.018-1.02-.006-2.042-.006-3.062.007-.5.045-1,.014-1.5a2.66,2.66,0,0,1,1.135-2.55" transform="translate(-149.811 -200.128)" fill="#657272"/>
      </g>
    </g>
  </g>
</svg>
